<svg xmlns="http://www.w3.org/2000/svg" viewBox="0 0 32 32">
  <defs>
    <linearGradient id="gradient" x1="0%" y1="0%" x2="100%" y2="100%">
      <stop offset="0%" style="stop-color:#FF6B35;stop-opacity:1" />
      <stop offset="100%" style="stop-color:#2E86C1;stop-opacity:1" />
    </linearGradient>
  </defs>
  
  <!-- Background circle -->
  <circle cx="16" cy="16" r="16" fill="url(#gradient)"/>
  
  <!-- Stylized "B" for Bespin Global -->
  <path d="M8 6 L8 26 L18 26 Q22 26 22 22 Q22 19 20 18 Q22 17 22 14 Q22 10 18 10 L8 10 Z M12 14 L12 10 L17 10 Q18 10 18 12 Q18 14 17 14 Z M12 22 L12 18 L18 18 Q19 18 19 20 Q19 22 18 22 Z" 
        fill="white" 
        stroke="none"/>
        
  <!-- Cloud elements -->
  <ellipse cx="24" cy="12" rx="3" ry="2" fill="white" opacity="0.7"/>
  <ellipse cx="26" cy="8" rx="2" ry="1.5" fill="white" opacity="0.5"/>
  <ellipse cx="22" cy="24" rx="2.5" ry="1.5" fill="white" opacity="0.6"/>
</svg>